<svg xmlns="http://www.w3.org/2000/svg" xmlns:xlink="http://www.w3.org/1999/xlink" version="1.1" x="0px" y="0px" viewBox="0 8.5 116.5 146.25" enable-background="new 0 8.5 116.5 117" xml:space="preserve"><path d="M61.422,37.03c-1.061-1.719-1.893-3.014-2.406-3.799c-0.944-1.447-0.95-1.436-1.052-1.445  c-0.088,0.002-0.1,0.002-1.045,1.457c-0.51,0.787-1.342,2.092-2.408,3.828c-1.795,2.93-4.512,7.527-7.264,12.791  c-4.811,9.207-10.546,22.074-10.546,31.09c0,5.682,2.212,11.023,6.23,15.041s9.357,6.229,15.039,6.229  c11.728,0.002,21.269-9.541,21.269-21.268c0-9.158-5.738-22.02-10.551-31.197C65.938,44.519,63.219,39.944,61.422,37.03z"/><path d="M6.388,118.587h103.165V15.421H6.388V118.587z M12.387,21.421h91.166v91.166H12.387V21.421z"/><text x="0" y="140.5" fill="#000000" font-size="5px" font-weight="bold" font-family="'Helvetica Neue', Helvetica, Arial-Unicode, Arial, Sans-serif">Created by corpus delicti</text><text x="0" y="145.5" fill="#000000" font-size="5px" font-weight="bold" font-family="'Helvetica Neue', Helvetica, Arial-Unicode, Arial, Sans-serif">from the Noun Project</text></svg>